%FSLAX35Y35*%
%MOIN*%
G04 EasyPC Gerber Version 18.0.9 Build 3640 *
%ADD82R,0.02165X0.05906*%
%ADD88R,0.02756X0.05906*%
%ADD90R,0.02800X0.03900*%
%ADD80R,0.04000X0.04000*%
%ADD76R,0.04400X0.08000*%
%ADD78R,0.05906X0.06299*%
%ADD77R,0.06250X0.50000*%
%ADD84R,0.05315X0.01575*%
%ADD79R,0.06700X0.02100*%
%ADD81R,0.05906X0.02165*%
%ADD87R,0.05200X0.02200*%
%ADD92R,0.04331X0.02362*%
%ADD89R,0.05906X0.02756*%
%ADD83R,0.07480X0.08465*%
%ADD86R,0.04000X0.04000*%
%ADD85R,0.05118X0.04724*%
%ADD91R,0.06299X0.05906*%
%ADD75R,0.50000X0.50000*%
%ADD26C,0.00100*%
%ADD93C,0.00800*%
%ADD74C,0.01000*%
%ADD27C,0.06000*%
%ADD28C,0.09400*%
X0Y0D02*
D02*
D26*
X230250Y696051D02*
Y42950D01*
X311450*
Y48500*
X234350*
G75*
G02X233200Y49650J1150*
G01*
Y127200*
X231599*
Y132700*
X236500*
Y133700*
X231300*
Y139799*
X236500*
Y140600*
X231300*
Y146700*
X236500*
Y149401*
X231300*
Y155500*
X236500*
Y158401*
X231398*
Y164500*
X233300*
Y169298*
X233050*
G75*
G02X231900Y170448J1150*
G01*
Y248606*
G75*
G02Y249094I1151J244*
G01*
Y406051*
G75*
G02X233050Y407201I1150*
G01*
X243150*
G75*
G02X244099Y406701J-1150*
G01*
Y409500*
X250000*
Y412551*
X248800*
Y417948*
X252700*
Y455198*
X243708*
G75*
G02X243800Y454748I-1058J-450*
G01*
Y447600*
X244202*
Y451200*
X250099*
Y441700*
X248557*
Y436850*
G75*
G02X248400Y436228I-1307*
G01*
Y428149*
X249398*
Y422752*
X245099*
Y428149*
X246100*
Y435700*
X240898*
Y434100*
X235398*
Y435700*
X235000*
Y411898*
X235898*
Y413500*
X241001*
Y418252*
X245898*
Y412252*
X241398*
Y408000*
X235898*
Y409598*
X233850*
G75*
G02X232700Y410748J1150*
G01*
Y436850*
G75*
G02X233850Y438000I1150*
G01*
X235398*
Y439600*
X240898*
Y438000*
X245943*
Y441700*
X244202*
Y445300*
X242650*
G75*
G02X241500Y446450J1150*
G01*
Y453598*
X233050*
G75*
G02X231900Y454748J1150*
G01*
Y538250*
G75*
G02X233050Y539400I1150*
G01*
X234001*
Y541000*
X239501*
Y539400*
X240001*
Y539500*
X239702*
Y543200*
X233702*
Y549299*
X239800*
Y543799*
X240001*
Y547240*
X246702*
Y546000*
X247150*
G75*
G02X248300Y544850J-1150*
G01*
Y534748*
G75*
G02X247150Y533598I-1150*
G01*
X235800*
Y457498*
X253850*
G75*
G02X255000Y456348J-1150*
G01*
Y392348*
G75*
G02X253850Y391198I-1150*
G01*
X237400*
Y302150*
G75*
G02X237450Y302151I51J-1099*
G01*
X248249*
G75*
G02X249349Y301051J-1100*
G01*
Y273350*
G75*
G02X248249Y272250I-1100*
G01*
X237450*
G75*
G02X237400Y272251I2J1100*
G01*
Y254800*
X252350*
G75*
G02X253500Y253650J-1150*
G01*
Y251600*
X258300*
Y250000*
X274300*
Y273898*
X273123*
Y266633*
X268867*
Y274039*
X271199*
G75*
G02X270600Y275048I551J1009*
G01*
Y286348*
X251749*
G75*
G02X250649Y287448J1100*
G01*
Y300098*
X249969*
Y307504*
X254225*
Y301950*
X254694*
Y307504*
X258950*
Y301950*
X259418*
Y307504*
X260237*
Y310000*
X258702*
Y315200*
X256501*
Y309700*
X250398*
Y315799*
X254398*
Y321299*
X260300*
Y321748*
G75*
G02X260411Y322241I1150J0*
G01*
X239450*
G75*
G02X238143Y323548J1307*
G01*
Y389148*
G75*
G02X239450Y390456I1307*
G01*
X255743*
Y458241*
X237850*
G75*
G02X236543Y459548J1307*
G01*
Y531548*
G75*
G02X237850Y532856I1307*
G01*
X249043*
Y541248*
G75*
G02X250350Y542556I1307*
G01*
X256843*
Y543539*
X250800*
Y547240*
X252700*
Y551700*
X252300*
Y550100*
X246800*
Y555600*
X252300*
Y554000*
X253850*
G75*
G02X255000Y552850J-1150*
G01*
Y547240*
X257108*
G75*
G02X258150Y547757I1042J-790*
G01*
X258501*
Y553200*
X263843*
Y563216*
X258835*
Y566657*
X258536*
Y571120*
X258835*
Y573300*
X251556*
Y571169*
X251859*
Y567720*
X253131*
Y561496*
X246513*
Y567496*
X244442*
Y570669*
G75*
G02X243983Y570967I466J1222*
G01*
X243026Y571924*
G75*
G02X242643Y572848I924J925*
G01*
Y586748*
G75*
G02X243026Y587673I1307J0*
G01*
X245626Y590273*
G75*
G02X246550Y590656I925J-924*
G01*
X265150*
G75*
G02X266074Y590273I0J-1307*
G01*
X272374Y583973*
G75*
G02X272757Y583048I-924J-925*
G01*
Y574559*
X274509*
Y573779*
X278650*
G75*
G02X279100Y573687J-1150*
G01*
Y591700*
X233050*
G75*
G02X231900Y592850J1150*
G01*
Y696051*
X230250*
X233001Y440897D02*
Y451000D01*
X239501*
Y440897*
X233001*
X233520Y560905D02*
Y570870D01*
X242501*
Y560905*
X233520*
Y578031D02*
Y587996D01*
X242501*
Y578031*
X233520*
X235099Y431901D02*
X241202D01*
Y425799*
X235099*
Y431901*
X244599Y555901D02*
Y549799D01*
X238501*
Y555901*
X244599*
X249969Y272851D02*
G75*
G02X249850Y273350I980J499D01*
G01*
Y280350*
G75*
G02X250950Y281450I1100*
G01*
X259351*
G75*
G02X260451Y280350J-1100*
G01*
Y274039*
X263674*
Y266633*
X259418*
Y272252*
G75*
G02X259351Y272250I-66J1098*
G01*
X259249*
Y266332*
X254391*
Y272250*
X254225*
Y266633*
X249969*
Y272851*
X268398Y274039D02*
Y266633D01*
X264143*
Y274039*
X268398*
X230250Y445948D02*
G36*
Y42950D01*
X311450*
Y48500*
X234350*
G75*
G02X233200Y49650J1150*
G01*
Y127200*
X231599*
Y132700*
X236500*
Y133700*
X231300*
Y139799*
X236500*
Y140600*
X231300*
Y146700*
X236500*
Y149401*
X231300*
Y155500*
X236500*
Y158401*
X231398*
Y164500*
X233300*
Y169298*
X233050*
G75*
G02X231900Y170448J1150*
G01*
Y248606*
G75*
G02Y249094I1151J244*
G01*
Y406051*
G75*
G02X233050Y407201I1150*
G01*
X243150*
G75*
G02X244099Y406701J-1150*
G01*
Y409500*
X250000*
Y412551*
X248800*
Y417948*
X252700*
Y455198*
X243708*
G75*
G02X243800Y454748I-1058J-450*
G01*
Y447600*
X244202*
Y451200*
X250099*
Y441700*
X248557*
Y436850*
G75*
G02X248400Y436228I-1307*
G01*
Y428149*
X249398*
Y422752*
X245099*
Y428149*
X246100*
Y428850*
X241202*
Y425799*
X235099*
Y428850*
X235000*
Y411898*
X235898*
Y413500*
X241001*
Y418252*
X245898*
Y412252*
X241398*
Y408000*
X235898*
Y409598*
X233850*
G75*
G02X232700Y410748J1150*
G01*
Y436850*
G75*
G02X233850Y438000I1150*
G01*
X235398*
Y439600*
X240898*
Y438000*
X245943*
Y441700*
X244202*
Y445300*
X242650*
G75*
G02X241615Y445948J1150*
G01*
X239501*
Y440897*
X233001*
Y445948*
X230250*
G37*
X233001D02*
G36*
Y451000D01*
X239501*
Y445948*
X241615*
G75*
G02X241500Y446450I1035J501*
G01*
Y453598*
X233050*
G75*
G02X231900Y454748J1150*
G01*
Y538250*
G75*
G02X233050Y539400I1150*
G01*
X234001*
Y541000*
X239501*
Y539400*
X240001*
Y539500*
X239702*
Y543200*
X233702*
Y549299*
X239800*
Y543799*
X240001*
Y547240*
X246702*
Y546000*
X247150*
G75*
G02X248300Y544850J-1150*
G01*
Y534748*
G75*
G02X247150Y533598I-1150*
G01*
X235800*
Y457498*
X253850*
G75*
G02X255000Y456348J-1150*
G01*
Y392348*
G75*
G02X253850Y391198I-1150*
G01*
X237400*
Y302150*
G75*
G02X237450Y302151I51J-1099*
G01*
X248249*
G75*
G02X249349Y301051J-1100*
G01*
Y273891*
X249850*
Y280350*
G75*
G02X250950Y281450I1100*
G01*
X259351*
G75*
G02X260451Y280350J-1100*
G01*
Y274039*
X263674*
Y273891*
X264143*
Y274039*
X268398*
Y273891*
X268867*
Y274039*
X271199*
G75*
G02X270600Y275048I551J1009*
G01*
Y286348*
X251749*
G75*
G02X250649Y287448J1100*
G01*
Y300098*
X249969*
Y307504*
X254225*
Y301950*
X254694*
Y307504*
X258950*
Y301950*
X259418*
Y307504*
X260237*
Y310000*
X258702*
Y315200*
X256501*
Y309700*
X250398*
Y315799*
X254398*
Y321299*
X260300*
Y321748*
G75*
G02X260411Y322241I1150J0*
G01*
X239450*
G75*
G02X238143Y323548J1307*
G01*
Y389148*
G75*
G02X239450Y390456I1307*
G01*
X255743*
Y458241*
X237850*
G75*
G02X236543Y459548J1307*
G01*
Y531548*
G75*
G02X237850Y532856I1307*
G01*
X249043*
Y541248*
G75*
G02X250350Y542556I1307*
G01*
X256843*
Y543539*
X250800*
Y547240*
X252700*
Y551700*
X252300*
Y550100*
X246800*
Y552850*
X244599*
Y549799*
X238501*
Y552850*
X230250*
Y445948*
X233001*
G37*
X230250Y565887D02*
G36*
Y552850D01*
X238501*
Y555901*
X244599*
Y552850*
X246800*
Y555600*
X252300*
Y554000*
X253850*
G75*
G02X255000Y552850J-1150*
G01*
Y547240*
X257108*
G75*
G02X258150Y547757I1042J-790*
G01*
X258501*
Y553200*
X263843*
Y563216*
X258835*
Y566657*
X258536*
Y571120*
X258835*
Y573300*
X251556*
Y571169*
X251859*
Y567720*
X253131*
Y561496*
X246513*
Y565887*
X242501*
Y560905*
X233520*
Y565887*
X230250*
G37*
X233520D02*
G36*
Y570870D01*
X242501*
Y565887*
X246513*
Y567496*
X244442*
Y570669*
G75*
G02X243983Y570967I466J1222*
G01*
X243026Y571924*
G75*
G02X242643Y572848I924J925*
G01*
Y583013*
X242501*
Y578031*
X233520*
Y583013*
X230250*
Y565887*
X233520*
G37*
Y583013D02*
G36*
Y587996D01*
X242501*
Y583013*
X242643*
Y586748*
G75*
G02X243026Y587673I1307J0*
G01*
X245626Y590273*
G75*
G02X246550Y590656I925J-924*
G01*
X265150*
G75*
G02X266074Y590273I0J-1307*
G01*
X272374Y583973*
G75*
G02X272757Y583048I-924J-925*
G01*
Y574559*
X274509*
Y573779*
X278650*
G75*
G02X279100Y573687J-1150*
G01*
Y591700*
X233050*
G75*
G02X231900Y592850J1150*
G01*
Y696051*
X230250*
Y583013*
X233520*
G37*
X235099Y428850D02*
G36*
Y431901D01*
X241202*
Y428850*
X246100*
Y435700*
X240898*
Y434100*
X235398*
Y435700*
X235000*
Y428850*
X235099*
G37*
X249349Y273891D02*
G36*
Y273350D01*
G75*
G02X248249Y272250I-1100*
G01*
X237450*
G75*
G02X237400Y272251I2J1100*
G01*
Y254800*
X252350*
G75*
G02X253500Y253650J-1150*
G01*
Y251600*
X258300*
Y250000*
X274300*
Y273898*
X273123*
Y266633*
X268867*
Y273891*
X268398*
Y266633*
X264143*
Y273891*
X263674*
Y266633*
X259418*
Y272252*
G75*
G02X259351Y272250I-66J1098*
G01*
X259249*
Y266332*
X254391*
Y272250*
X254225*
Y266633*
X249969*
Y272851*
G75*
G02X249850Y273350I980J499*
G01*
Y273891*
X249349*
G37*
X237400Y696051D02*
Y597200D01*
X283450*
G75*
G02X284600Y596050J-1150*
G01*
Y517650*
G75*
G02X283450Y516500I-1150*
G01*
X247800*
Y468698*
X285050*
G75*
G02X286200Y467548J-1150*
G01*
Y378450*
G75*
G02X285050Y377300I-1150*
G01*
X249400*
Y333198*
X288250*
G75*
G02X289400Y332048J-1150*
G01*
Y234450*
G75*
G02X288250Y233300I-1150*
G01*
X247100*
Y200400*
X287950*
G75*
G02X289100Y199250J-1150*
G01*
Y162153*
G75*
G02X287950Y161003I-1150*
G01*
X287280*
Y157988*
X287583*
Y153720*
X287280*
Y147555*
X288106*
G75*
G02X288594I244J-1151*
G01*
X290000*
Y201300*
X249150*
G75*
G02X248000Y202450J1150*
G01*
Y231250*
G75*
G02X249150Y232400I1150*
G01*
X290300*
Y334098*
X251450*
G75*
G02X250300Y335248J1150*
G01*
Y375250*
G75*
G02X251450Y376400I1150*
G01*
X287100*
Y469598*
X249850*
G75*
G02X248700Y470748J1150*
G01*
Y514450*
G75*
G02X249850Y515600I1150*
G01*
X285500*
Y598100*
X239450*
G75*
G02X238300Y599250J1150*
G01*
Y696051*
X237400*
G36*
Y597200*
X283450*
G75*
G02X284600Y596050J-1150*
G01*
Y517650*
G75*
G02X283450Y516500I-1150*
G01*
X247800*
Y468698*
X285050*
G75*
G02X286200Y467548J-1150*
G01*
Y378450*
G75*
G02X285050Y377300I-1150*
G01*
X249400*
Y333198*
X288250*
G75*
G02X289400Y332048J-1150*
G01*
Y234450*
G75*
G02X288250Y233300I-1150*
G01*
X247100*
Y200400*
X287950*
G75*
G02X289100Y199250J-1150*
G01*
Y162153*
G75*
G02X287950Y161003I-1150*
G01*
X287280*
Y157988*
X287583*
Y153720*
X287280*
Y147555*
X288106*
G75*
G02X288594I244J-1151*
G01*
X290000*
Y201300*
X249150*
G75*
G02X248000Y202450J1150*
G01*
Y231250*
G75*
G02X249150Y232400I1150*
G01*
X290300*
Y334098*
X251450*
G75*
G02X250300Y335248J1150*
G01*
Y375250*
G75*
G02X251450Y376400I1150*
G01*
X287100*
Y469598*
X249850*
G75*
G02X248700Y470748J1150*
G01*
Y514450*
G75*
G02X249850Y515600I1150*
G01*
X285500*
Y598100*
X239450*
G75*
G02X238300Y599250J1150*
G01*
Y696051*
X237400*
G37*
X240409Y170900D02*
G75*
G02X240501Y170448I-1057J-452D01*
G01*
Y164500*
X241300*
Y170000*
X246800*
Y168400*
X249721*
G75*
G02X250871Y167250J-1150*
G01*
Y163986*
X253422*
Y161137*
X253725*
Y156870*
X253422*
Y154838*
X253725*
Y150705*
X256450*
G75*
G02X257600Y149555J-1150*
G01*
Y147713*
X279875*
Y153720*
X279576*
Y157988*
X279875*
Y167135*
X285200*
Y170150*
G75*
G02X284750Y170058I-450J1058*
G01*
X279505*
Y167506*
X272690*
Y174911*
X279505*
Y172358*
X283600*
Y194900*
X267308*
G75*
G02X267400Y194450I-1058J-450*
G01*
Y189219*
G75*
G02X266225Y181900I-1150J-3569*
G01*
Y174911*
X270056*
Y167506*
X269375*
Y163250*
G75*
G02X268225Y162100I-1150*
G01*
X257550*
G75*
G02X256737Y162437I0J1150*
G01*
X248274Y170900*
X240409*
X272200Y185650D02*
G75*
G02X280300I4050D01*
G01*
G75*
G02X272200I-4050*
G01*
X270000D02*
G36*
G75*
G02X266225Y181900I-3750D01*
G01*
Y174911*
X270056*
Y167506*
X269375*
Y163250*
G75*
G02X268225Y162100I-1150*
G01*
X257550*
G75*
G02X256737Y162437I0J1150*
G01*
X248274Y170900*
X240409*
G75*
G02X240501Y170448I-1057J-452*
G01*
Y164500*
X241300*
Y170000*
X246800*
Y168400*
X249721*
G75*
G02X250871Y167250J-1150*
G01*
Y163986*
X253422*
Y161137*
X253725*
Y156870*
X253422*
Y154838*
X253725*
Y150705*
X256450*
G75*
G02X257600Y149555J-1150*
G01*
Y147713*
X279875*
Y153720*
X279576*
Y157988*
X279875*
Y167135*
X285200*
Y170150*
G75*
G02X284750Y170058I-450J1058*
G01*
X279505*
Y167506*
X272690*
Y174911*
X279505*
Y172358*
X283600*
Y185650*
X280300*
G75*
G02X272200I-4050*
G01*
X270000*
G37*
X272200D02*
G36*
G75*
G02X280300I4050D01*
G01*
X283600*
Y194900*
X267308*
G75*
G02X267400Y194450I-1058J-450*
G01*
Y189219*
G75*
G02X270000Y185650I-1150J-3569*
G01*
X272200*
G37*
X262852Y307504D02*
X263674D01*
Y301950*
X263839*
Y307803*
X268698*
Y301950*
X268867*
Y307504*
X269843*
Y313546*
G75*
G02X268491Y315200I2107J3102*
G01*
X264202*
Y310000*
X262852*
Y307504*
G36*
X263674*
Y301950*
X263839*
Y307803*
X268698*
Y301950*
X268867*
Y307504*
X269843*
Y313546*
G75*
G02X268491Y315200I2107J3102*
G01*
X264202*
Y310000*
X262852*
Y307504*
G37*
X1404550Y41850D02*
Y1216850D01*
X229150*
Y41850*
X1404550*
D02*
D27*
X246250Y185650D03*
X256250D03*
X266250D03*
X271950Y316648D03*
X276250Y185650D03*
X278850Y98050D03*
Y108050D03*
X288850Y98050D03*
Y108050D03*
D02*
D28*
X266989Y354377D03*
Y491878D03*
X267013Y79421D03*
Y216921D03*
Y629421D03*
Y766921D03*
Y904421D03*
Y1041921D03*
Y1179421D03*
X404513Y79421D03*
Y216921D03*
Y354421D03*
Y491921D03*
Y629421D03*
Y766921D03*
Y904421D03*
Y1041921D03*
Y1179421D03*
X542013Y79421D03*
Y216921D03*
Y354421D03*
Y491921D03*
Y629421D03*
Y766921D03*
Y904421D03*
Y1041921D03*
Y1179421D03*
X679513Y79421D03*
Y216921D03*
Y354421D03*
Y491921D03*
Y629421D03*
Y766921D03*
Y904421D03*
Y1041921D03*
Y1179421D03*
X817013Y79421D03*
Y216921D03*
Y354421D03*
Y491921D03*
Y629421D03*
Y766921D03*
Y904421D03*
Y1041921D03*
Y1179421D03*
X954513Y79421D03*
Y216921D03*
Y354421D03*
Y491921D03*
Y629421D03*
Y766921D03*
Y904421D03*
Y1041921D03*
Y1179421D03*
X1092013Y79421D03*
Y216921D03*
Y354421D03*
Y491921D03*
Y629421D03*
Y766921D03*
Y904421D03*
Y1041921D03*
Y1179421D03*
X1229513Y79421D03*
Y216921D03*
Y354421D03*
Y491921D03*
Y629421D03*
Y766921D03*
Y904421D03*
Y1041921D03*
Y1179421D03*
X1367013Y79421D03*
Y216921D03*
Y354421D03*
Y491921D03*
Y629421D03*
Y766921D03*
Y904421D03*
Y1041921D03*
Y1179421D03*
D02*
D74*
X232850Y136750D02*
X230851D01*
X232850Y143650D02*
X230851D01*
X232850Y152450D02*
X230851D01*
X232950Y161450D02*
X230950D01*
X234350Y135250D02*
Y133252D01*
Y145150D02*
Y147149D01*
Y150950D02*
Y148948D01*
Y153950D02*
Y155948D01*
X234450Y159950D02*
Y157948D01*
X234550Y445948D02*
X232550D01*
X235250Y546250D02*
X233249D01*
X236250Y442448D02*
Y440448D01*
Y449448D02*
Y451448D01*
X236750Y544750D02*
Y542752D01*
Y547750D02*
Y549752D01*
X237950Y445948D02*
X239950D01*
X238150Y427350D02*
Y425350D01*
Y430350D02*
Y432350D01*
X239650Y428850D02*
X241650D01*
X240050Y552850D02*
X238050D01*
X241251Y541650D02*
X239251D01*
X241550Y551350D02*
Y549350D01*
Y554350D02*
Y556350D01*
X242550Y415250D02*
X240550D01*
X243050Y552850D02*
X245050D01*
X243450Y413800D02*
Y411799D01*
Y416700D02*
Y418700D01*
X244350Y415250D02*
X246351D01*
X245993Y569332D02*
X243993D01*
X247150Y407950D02*
Y409948D01*
X250307Y569332D02*
X252308D01*
X251950Y312750D02*
X249950D01*
X252174Y152704D02*
X254174D01*
X252174Y159004D02*
X254174D01*
X253450Y311250D02*
Y309252D01*
Y314250D02*
Y316252D01*
X254950Y312750D02*
X256950D01*
X255950Y318250D02*
X253950D01*
X256820Y267882D02*
Y265881D01*
X257450Y316750D02*
Y314752D01*
Y319750D02*
Y321752D01*
X260050Y550150D02*
X258050D01*
X260085Y568889D02*
X258083D01*
X261550Y551650D02*
Y553649D01*
X265450Y316750D02*
Y314752D01*
X266269Y306252D02*
Y308252D01*
X273750Y185650D02*
X271750D01*
X276250Y183150D02*
Y181150D01*
Y188150D02*
Y190150D01*
X278750Y185650D02*
X280750D01*
X281126Y155854D02*
X279127D01*
X286032D02*
X288032D01*
D02*
D75*
X335800Y148100D03*
Y285600D03*
Y423100D03*
Y560600D03*
Y698100D03*
Y835600D03*
Y973100D03*
Y1110600D03*
X473300Y148100D03*
Y285600D03*
Y423100D03*
Y560600D03*
Y698100D03*
Y835600D03*
Y973100D03*
Y1110600D03*
X610800Y148100D03*
Y285600D03*
Y423100D03*
Y560600D03*
Y698100D03*
Y835600D03*
Y973100D03*
Y1110600D03*
X748300Y148100D03*
Y285600D03*
Y423100D03*
Y560600D03*
Y698100D03*
Y835600D03*
Y973100D03*
Y1110600D03*
X885800Y148100D03*
Y285600D03*
Y423100D03*
Y560600D03*
Y698100D03*
Y835600D03*
Y973100D03*
Y1110600D03*
X1023300Y148100D03*
Y285600D03*
Y423100D03*
Y560600D03*
Y698100D03*
Y835600D03*
Y973100D03*
Y1110600D03*
X1160800Y148100D03*
Y285600D03*
Y423100D03*
Y560600D03*
Y698100D03*
Y835600D03*
Y973100D03*
Y1110600D03*
X1298300Y148100D03*
Y285600D03*
Y423100D03*
Y560600D03*
Y698100D03*
Y835600D03*
Y973100D03*
Y1110600D03*
D02*
D76*
X236250Y445948D03*
X247150Y446450D03*
D02*
D77*
X300750Y148050D03*
Y285550D03*
Y423050D03*
Y560550D03*
Y698050D03*
Y835550D03*
Y973050D03*
Y1110550D03*
D02*
D78*
X259983Y79360D03*
Y216860D03*
Y629360D03*
Y766860D03*
Y904360D03*
Y1041860D03*
Y1179360D03*
X274156Y79360D03*
Y216860D03*
Y629360D03*
Y766860D03*
Y904360D03*
Y1041860D03*
Y1179360D03*
X397483Y79360D03*
Y216860D03*
Y354360D03*
Y491860D03*
Y629360D03*
Y766860D03*
Y904360D03*
Y1041860D03*
Y1179360D03*
X411656Y79360D03*
Y216860D03*
Y354360D03*
Y491860D03*
Y629360D03*
Y766860D03*
Y904360D03*
Y1041860D03*
Y1179360D03*
X534983Y79360D03*
Y216860D03*
Y354360D03*
Y491860D03*
Y629360D03*
Y766860D03*
Y904360D03*
Y1041860D03*
Y1179360D03*
X549156Y79360D03*
Y216860D03*
Y354360D03*
Y491860D03*
Y629360D03*
Y766860D03*
Y904360D03*
Y1041860D03*
Y1179360D03*
X672483Y79360D03*
Y216860D03*
Y354360D03*
Y491860D03*
Y629360D03*
Y766860D03*
Y904360D03*
Y1041860D03*
Y1179360D03*
X686656Y79360D03*
Y216860D03*
Y354360D03*
Y491860D03*
Y629360D03*
Y766860D03*
Y904360D03*
Y1041860D03*
Y1179360D03*
X809983Y79360D03*
Y216860D03*
Y354360D03*
Y491860D03*
Y629360D03*
Y766860D03*
Y904360D03*
Y1041860D03*
Y1179360D03*
X824156Y79360D03*
Y216860D03*
Y354360D03*
Y491860D03*
Y629360D03*
Y766860D03*
Y904360D03*
Y1041860D03*
Y1179360D03*
X947483Y79360D03*
Y216860D03*
Y354360D03*
Y491860D03*
Y629360D03*
Y766860D03*
Y904360D03*
Y1041860D03*
Y1179360D03*
X961656Y79360D03*
Y216860D03*
Y354360D03*
Y491860D03*
Y629360D03*
Y766860D03*
Y904360D03*
Y1041860D03*
Y1179360D03*
X1084983Y79360D03*
Y216860D03*
Y354360D03*
Y491860D03*
Y629360D03*
Y766860D03*
Y904360D03*
Y1041860D03*
Y1179360D03*
X1099156Y79360D03*
Y216860D03*
Y354360D03*
Y491860D03*
Y629360D03*
Y766860D03*
Y904360D03*
Y1041860D03*
Y1179360D03*
X1222483Y79360D03*
Y216860D03*
Y354360D03*
Y491860D03*
Y629360D03*
Y766860D03*
Y904360D03*
Y1041860D03*
Y1179360D03*
X1236656Y79360D03*
Y216860D03*
Y354360D03*
Y491860D03*
Y629360D03*
Y766860D03*
Y904360D03*
Y1041860D03*
Y1179360D03*
X1359983Y79360D03*
Y216860D03*
Y354360D03*
Y491860D03*
Y629360D03*
Y766860D03*
Y904360D03*
Y1041860D03*
Y1179360D03*
X1374156Y79360D03*
Y216860D03*
Y354360D03*
Y491860D03*
Y629360D03*
Y766860D03*
Y904360D03*
Y1041860D03*
Y1179360D03*
D02*
D79*
X254250Y1127208D03*
Y1132208D03*
Y1137208D03*
Y1142208D03*
Y1147208D03*
Y1152208D03*
Y1157208D03*
Y1162208D03*
X274650Y1127208D03*
Y1132208D03*
Y1137208D03*
Y1142208D03*
Y1147208D03*
Y1152208D03*
Y1157208D03*
Y1162208D03*
X871050Y71379D03*
Y76379D03*
Y81379D03*
Y86379D03*
Y91379D03*
Y96379D03*
Y101379D03*
Y106379D03*
X872650Y1152179D03*
Y1157179D03*
Y1162179D03*
Y1167179D03*
Y1172179D03*
Y1177179D03*
Y1182179D03*
Y1187179D03*
X891450Y71379D03*
Y76379D03*
Y81379D03*
Y86379D03*
Y91379D03*
Y96379D03*
Y101379D03*
Y106379D03*
X893050Y1152179D03*
Y1157179D03*
Y1162179D03*
Y1167179D03*
Y1172179D03*
Y1177179D03*
Y1182179D03*
Y1187179D03*
X1371850Y683379D03*
Y688379D03*
Y693379D03*
Y698379D03*
Y703379D03*
Y708379D03*
Y713379D03*
Y718379D03*
X1392250Y683379D03*
Y688379D03*
Y693379D03*
Y698379D03*
Y703379D03*
Y708379D03*
Y713379D03*
Y718379D03*
D02*
D80*
X234350Y129950D03*
Y136750D03*
Y143650D03*
Y152450D03*
X234450Y161450D03*
X236050Y167250D03*
X241550Y552850D03*
X242350Y129950D03*
Y136750D03*
Y143650D03*
Y152450D03*
X242450Y161450D03*
X244050Y167250D03*
X247550Y248850D03*
X249550Y552850D03*
X253450Y312750D03*
X255550Y248850D03*
X257450Y318250D03*
X261450Y312750D03*
X265450Y318250D03*
X290650Y71050D03*
X298650D03*
X392650Y93660D03*
Y228660D03*
Y366160D03*
Y503660D03*
Y638660D03*
Y776160D03*
Y913660D03*
Y1051160D03*
Y1170660D03*
X400650Y93660D03*
Y228660D03*
Y366160D03*
Y503660D03*
Y638660D03*
Y776160D03*
Y913660D03*
Y1051160D03*
Y1170660D03*
X530150Y93660D03*
Y228660D03*
Y366160D03*
Y503660D03*
Y638660D03*
Y776160D03*
Y913660D03*
Y1051160D03*
Y1170660D03*
X538150Y93660D03*
Y228660D03*
Y366160D03*
Y503660D03*
Y638660D03*
Y776160D03*
Y913660D03*
Y1051160D03*
Y1170660D03*
X667650Y93660D03*
Y228660D03*
Y366160D03*
Y503660D03*
Y638660D03*
Y776160D03*
Y913660D03*
Y1051160D03*
Y1170660D03*
X675650Y93660D03*
Y228660D03*
Y366160D03*
Y503660D03*
Y638660D03*
Y776160D03*
Y913660D03*
Y1051160D03*
Y1170660D03*
X805183Y93660D03*
Y228660D03*
Y366160D03*
Y503660D03*
Y638660D03*
Y776160D03*
Y913660D03*
Y1051160D03*
Y1170660D03*
X813183Y93660D03*
Y228660D03*
Y366160D03*
Y503660D03*
Y638660D03*
Y776160D03*
Y913660D03*
Y1051160D03*
Y1170660D03*
X942650Y93660D03*
Y228660D03*
Y366160D03*
Y503660D03*
Y638660D03*
Y776160D03*
Y913660D03*
Y1051160D03*
Y1170660D03*
X950650Y93660D03*
Y228660D03*
Y366160D03*
Y503660D03*
Y638660D03*
Y776160D03*
Y913660D03*
Y1051160D03*
Y1170660D03*
X1080150Y93660D03*
Y228660D03*
Y366160D03*
Y503660D03*
Y638660D03*
Y776160D03*
Y913660D03*
Y1051160D03*
Y1170660D03*
X1088150Y93660D03*
Y228660D03*
Y366160D03*
Y503660D03*
Y638660D03*
Y776160D03*
Y913660D03*
Y1051160D03*
Y1170660D03*
X1217650Y93660D03*
Y228660D03*
Y366160D03*
Y503660D03*
Y638660D03*
Y776160D03*
Y913660D03*
Y1051160D03*
Y1170660D03*
X1225650Y93660D03*
Y228660D03*
Y366160D03*
Y503660D03*
Y638660D03*
Y776160D03*
Y913660D03*
Y1051160D03*
Y1170660D03*
X1355150Y93660D03*
Y228660D03*
Y366160D03*
Y503660D03*
Y638660D03*
Y776160D03*
Y913660D03*
Y1051160D03*
Y1170660D03*
X1363150Y93660D03*
Y228660D03*
Y366160D03*
Y503660D03*
Y638660D03*
Y776160D03*
Y913660D03*
Y1051160D03*
Y1170660D03*
D02*
D81*
X249721Y143256D03*
Y146405D03*
Y149555D03*
Y152704D03*
Y155854D03*
Y159004D03*
Y162153D03*
X283579Y143256D03*
Y146405D03*
Y149555D03*
Y152704D03*
Y155854D03*
Y159004D03*
Y162153D03*
Y165303D03*
D02*
D82*
X255626Y137350D03*
Y171208D03*
X258776Y137350D03*
Y171208D03*
X261926Y137350D03*
Y171208D03*
X265075Y137350D03*
Y171208D03*
X268225Y137350D03*
Y171208D03*
X271374Y137350D03*
X274524D03*
Y171208D03*
X277674Y137350D03*
Y171208D03*
D02*
D83*
X238012Y565887D03*
Y583013D03*
D02*
D84*
X248150Y569332D03*
Y571891D03*
Y574450D03*
Y577009D03*
Y579568D03*
D02*
D85*
X249823Y564607D03*
Y584293D03*
D02*
D86*
X236750Y538250D03*
Y546250D03*
X238150Y428850D03*
Y436850D03*
X238650Y402748D03*
Y410748D03*
X247150Y398450D03*
Y406450D03*
X261550Y542150D03*
Y550150D03*
X271550Y538150D03*
Y546150D03*
X906850Y60879D03*
Y68879D03*
D02*
D87*
X243351Y537910D03*
Y541650D03*
Y545390D03*
X254149Y537910D03*
Y545390D03*
D02*
D88*
X252096Y270335D03*
Y303800D03*
X256820Y270335D03*
Y303800D03*
X261544Y270335D03*
Y303800D03*
X266269Y270335D03*
Y303800D03*
X270993Y270335D03*
Y303800D03*
D02*
D89*
X277489Y279981D03*
Y284705D03*
Y289430D03*
Y294154D03*
D02*
D90*
X243450Y415250D03*
X247250Y425450D03*
X250950Y415250D03*
D02*
D91*
X267050Y347347D03*
Y361520D03*
Y484848D03*
Y499022D03*
D02*
D92*
X261750Y565148D03*
Y568889D03*
Y572629D03*
X271593Y565148D03*
Y568889D03*
Y572629D03*
D02*
D93*
X231450Y161450D02*
Y322821D01*
Y407548*
Y445948*
X236250*
X231450Y407548D02*
X243450D01*
Y415250*
X231450Y541548D02*
Y541650D01*
X243351*
X231450Y546250D02*
Y541548D01*
X233050Y248850D02*
Y406050D01*
X243150*
Y398450*
X247150*
X234350Y129950D02*
Y49650D01*
X1400750*
Y674450*
X1397550*
Y693379*
X1392250*
X234350Y136750D02*
Y143650D01*
Y152450*
Y155950*
X231450*
Y161450*
X234450D02*
X231450D01*
X236250Y445948D02*
X231450D01*
Y541548*
X236750Y538250D02*
X243351D01*
Y537910*
X236750Y546250D02*
X231450D01*
X238150Y436850D02*
X247250D01*
X238650Y410748D02*
X233850D01*
Y436850*
X238150*
X241550Y552850D02*
X245050D01*
X242350Y136750D02*
Y129950D01*
Y136750D02*
Y143650D01*
Y152450*
X239350*
Y170450*
X233050*
Y248850*
X242350Y152450D02*
Y149555D01*
X249721*
X242450Y161450D02*
Y159004D01*
X249721*
X243450Y415250D02*
Y428850D01*
X238150*
X243450Y415250D02*
X247150D01*
Y406450*
X244150Y263150D02*
X256820D01*
Y270335*
X245050Y552850D02*
Y548348D01*
X248750*
Y533148*
X236250*
Y457948*
X255450*
Y390748*
X237850*
Y312750*
X253450*
X245050Y556850D02*
X231450D01*
Y546250*
X245050Y556850D02*
X251652D01*
X254601Y559799*
X245050Y556850D02*
Y552850D01*
X246250Y185650D02*
Y179250D01*
X258350*
Y171208*
X258776*
X247150Y446450D02*
X242650D01*
Y454748*
X233050*
Y537910*
Y538250*
X236750*
X247250Y425450D02*
Y436850D01*
X247150*
Y446450*
X247550Y248850D02*
X233050D01*
X248150Y569332D02*
X257450D01*
Y569348*
X261750*
Y568889*
X248150Y571891D02*
X244907D01*
X243950Y572848*
Y586748*
X246550Y589348*
X262350*
X265150*
X271450Y583048*
Y572771*
X271593Y572629*
X248150Y574450D02*
X259929D01*
X261750Y572629*
X248150Y577009D02*
X263289D01*
X266750Y573548*
Y566748*
X268250Y565248*
X271493*
X271593Y565148*
X248150Y579568D02*
X263530D01*
X268250Y574848*
Y568889*
X271593*
X249721Y152704D02*
X256450D01*
Y155854*
X249721D02*
X242350D01*
Y152450*
X249721Y162153D02*
Y167250D01*
X244050*
X250950Y415250D02*
X251150D01*
Y398450*
X247150*
X253250Y1193679D02*
X865250D01*
Y1174479*
X886850*
X253250Y1193679D02*
Y1168079D01*
X279650*
Y1162308*
X254149Y537910D02*
Y537448D01*
X261550*
Y542150*
X254149Y545390D02*
X253850D01*
Y552850*
X249550*
X254601Y559799D02*
X257150Y562348D01*
Y565448*
X260590Y568889*
X261750*
X255626Y137350D02*
Y131279D01*
X250450*
X255626Y171208D02*
Y177650D01*
X236350*
Y244050*
X252350*
Y253650*
X236250*
Y392348*
X253850*
Y456348*
X234650*
Y534748*
X247150*
Y544850*
X243351*
Y545390*
X256250Y185650D02*
X261926D01*
Y184050*
Y171208*
X256450Y146479D02*
Y149555D01*
X249721*
X256450Y155854D02*
Y159079D01*
X249721*
Y159004*
X257450Y318250D02*
Y308650D01*
X244150*
X259950Y66821D02*
X259983D01*
Y79360*
Y86479*
X309050*
Y210979*
X259983*
Y216860*
Y222979*
X309050*
Y345679*
X267050*
Y347347*
X259983Y629360D02*
Y637679D01*
X307650*
Y760079*
X259650*
Y766860*
X259983*
Y773679*
X307650*
Y896879*
X259650*
Y904360*
X259983*
Y911279*
X308450*
Y1033679*
X260450*
Y1041860*
X259983*
Y1179360D02*
Y1173379D01*
X343250*
Y1139979*
X306850*
Y1052079*
X260450*
Y1041860*
X259983*
X261250Y1149508D02*
Y1166479D01*
X251650*
Y1192079*
X239450*
Y599250*
X286650*
Y514450*
X249850*
Y470748*
X288250*
Y375250*
X251450*
Y335248*
X291450*
Y231250*
X249150*
Y202450*
X291150*
Y146405*
X288350*
X261250Y1149508D02*
X281250D01*
X261250D02*
X249250D01*
Y1127208*
X254250*
X261450Y312750D02*
Y316248D01*
Y321748*
X277850*
X278450*
Y299250*
X271750*
Y275048*
X275450*
Y248850*
X255550*
X261544Y303800D02*
Y312750D01*
X261450*
X261550Y550150D02*
Y559799D01*
X254601*
X261750Y572629D02*
Y572548D01*
X265150*
Y546450*
X258150*
Y541248*
X250350*
Y531548*
X237850*
Y459548*
X257050*
Y389148*
X239450*
Y323548*
X280250*
Y297248*
X273350*
Y279981*
X277489*
X265075Y171208D02*
Y185650D01*
X266250*
Y194450*
X241150*
Y239250*
X283450*
Y327248*
X243450*
Y383250*
X280250*
Y462748*
X241850*
Y522450*
X278650*
Y572629*
X271593*
X266269Y303800D02*
Y318250D01*
X265450*
X267050Y361520D02*
X392650D01*
Y366160*
X267050Y484848D02*
X261050D01*
Y503250*
X308450*
Y620079*
X259650*
Y629360*
X259983*
X267050Y484848D02*
X309050D01*
Y365650*
X261050*
Y361148*
Y347347*
X267050*
Y499022D02*
X385650D01*
Y503660*
X392650*
X268225Y171208D02*
Y163250D01*
X257550*
X248750Y172050*
X234750*
Y245650*
X250750*
Y252050*
X234650*
Y402748*
X238650*
X270993Y303800D02*
Y316648D01*
X271950*
X271374Y137350D02*
Y123279D01*
X258350*
Y92850*
X251950*
Y66821*
X259950*
X271450Y155854D02*
Y185650D01*
X276250*
X271450Y155854D02*
X256450D01*
X271550Y538150D02*
X268150Y534750D01*
Y529948*
X239450*
Y461148*
X258650*
Y387548*
X241050*
Y325148*
X281850*
Y284705*
X271593Y565148D02*
Y546193D01*
X271550Y546150*
X271593Y568889D02*
X275050D01*
Y542150*
X261550*
X274156Y79360D02*
X385050D01*
Y93660*
X392650*
X274156Y216860D02*
X386750D01*
Y228660*
X392650*
X274156Y629360D02*
X384950D01*
Y638660*
X392650*
X274156Y766860D02*
X378450D01*
Y776160*
X392650*
X274156Y904360D02*
X386650D01*
Y913660*
X392650*
X274156Y1041860D02*
X385650D01*
Y1051160*
X392650*
X274156Y1179360D02*
X387050D01*
Y1170660*
X392650*
X274524Y108050D02*
Y91250D01*
X296350*
Y207250*
X253950*
Y226450*
X296250*
Y340048*
X259550*
X256250*
Y370450*
X293050*
Y475548*
X254650*
Y509650*
X291450*
Y604050*
X244250*
Y1152208*
X254250*
X274524Y137350D02*
Y108050D01*
X274650Y1127208D02*
X269950D01*
Y1113650*
X300750*
Y1110550*
X274650Y1132208D02*
X268450D01*
Y1062450*
X255450*
Y1016850*
X289050*
X300750Y1005150*
Y973050*
X274650Y1142208D02*
X266850D01*
Y1064050*
X253850*
Y867250*
X289850*
X300750Y856350*
Y835550*
X274650Y1147208D02*
X265250D01*
Y1065650*
X252250*
Y732050*
X282650*
X300750Y713950*
Y698050*
X277489Y279981D02*
Y242450D01*
X237950*
Y185650*
X246250*
X277489Y284705D02*
X281850D01*
X277674Y137350D02*
X283050D01*
Y98329*
X278850*
Y98050*
X277674Y171208D02*
X284750D01*
Y196050*
X242750*
Y237650*
X285050*
Y328848*
X245050*
Y381650*
X281850*
Y464348*
X243450*
Y520850*
X280250*
Y592850*
X233050*
Y1198479*
X880450*
Y1176879*
X872650*
Y1177179*
X278850Y98050D02*
Y92850D01*
X294750*
Y205650*
X252350*
Y228050*
X294650*
Y338448*
X254650*
Y372050*
X262750*
X291450*
Y473948*
X253050*
Y511250*
X289850*
Y602450*
X242650*
Y1157208*
X254250*
X278850Y108050D02*
X274524D01*
X279650Y1157508D02*
Y1151908D01*
X274650*
Y1152208*
X279650Y1157508D02*
X274650D01*
Y1157208*
X279650Y1162308D02*
Y1157508D01*
Y1162308D02*
Y1162208D01*
X274650*
X281250Y1149508D02*
Y1137208D01*
X274650*
X281250Y1149508D02*
Y1169679D01*
X254850*
Y1192079*
X281250*
X863650*
Y1152079*
X872650*
Y1152179*
X281850Y284705D02*
Y240850D01*
X239550*
Y192850*
X256250*
Y185650*
X283579Y143256D02*
X284650D01*
Y103129*
X288850*
Y98050*
X283579Y146405D02*
X288350D01*
X283579D02*
X256450D01*
Y146479*
X283579Y155854D02*
X289550D01*
Y200850*
X247550*
Y232850*
X289850*
Y333648*
X249850*
Y376850*
X286650*
Y469148*
X248250*
Y516050*
X285050*
Y597650*
X237850*
Y1193679*
X239750*
X253250*
X283579Y155854D02*
X271450D01*
X283579Y162153D02*
X287950D01*
Y199250*
X245950*
Y234450*
X288250*
Y332048*
X248250*
Y378450*
X285050*
Y467548*
X246650*
Y517650*
X283450*
Y596050*
X236250*
Y1195279*
X877250*
Y1186479*
X872650*
Y1187179*
X283579Y165303D02*
X286350D01*
Y197650*
X244350*
Y236050*
X286650*
Y330448*
X246650*
Y380050*
X283450*
Y465948*
X245050*
Y519250*
X281850*
Y594450*
X234650*
Y1196879*
X878850*
Y1181679*
X872650*
Y1182179*
X288350Y146405D02*
X288850D01*
Y108050*
Y98050D02*
X293150D01*
Y204050*
X250750*
Y226179*
Y229650*
X293050*
Y336848*
X253050*
Y373650*
X261150*
X289850*
Y472348*
X251450*
Y512850*
X288250*
Y600850*
X241050*
Y1162208*
X254250*
X290650Y71050D02*
X282850D01*
Y66821*
X259950*
X300750Y148050D02*
X299950D01*
Y208850*
X255550*
Y224850*
X305850*
Y343248*
X259450*
Y367250*
X296250*
Y478748*
X257850*
Y506450*
X294650*
Y607250*
X247450*
Y1070450*
X260450*
Y1137208*
X254250*
X300750Y285550D02*
Y341648D01*
X257850*
Y368850*
X294650*
Y477148*
X256250*
Y508050*
X293050*
Y605650*
X245850*
Y1072050*
X258850*
Y1132208*
X254250*
X300750Y423050D02*
Y480348D01*
X259450*
Y504850*
X296250*
Y608850*
X249050*
Y1068850*
X262050*
Y1142208*
X254250*
X300750Y560550D02*
Y610450D01*
X250650*
Y1067250*
X263650*
Y1147208*
X254250*
X335800Y285600D02*
X395883D01*
Y285160*
X335800Y423100D02*
X395883D01*
X335800Y560600D02*
X395883D01*
X335800Y698100D02*
X395883D01*
X335800Y835600D02*
X395883D01*
X335800Y973100D02*
X395883D01*
X335800Y1110600D02*
X395883D01*
Y1046160*
X393283*
Y1037560*
X395883*
Y973100*
Y148100D02*
Y83660D01*
X393283*
Y75060*
X395883*
Y68450*
X847950*
Y106379*
X871050*
X395883Y148100D02*
X335800D01*
X395883Y285160D02*
Y221160D01*
X393283*
Y212560*
X395883*
Y148100*
Y423100D02*
Y358660D01*
X393283*
Y350060*
X395883*
Y285160*
Y560600D02*
Y496160D01*
X393283*
Y487560*
X395883*
Y423100*
Y698100D02*
Y633660D01*
X393283*
Y625060*
X395883*
Y560600*
Y835600D02*
Y771160D01*
X393283*
Y762560*
X395883*
Y698100*
Y973100D02*
Y908660D01*
X393283*
Y900060*
X395883*
Y835600*
X397483Y216860D02*
Y79360D01*
Y354360D02*
Y216860D01*
Y491860D02*
Y354360D01*
Y629360D02*
Y491860D01*
Y766860D02*
Y629360D01*
Y904360D02*
Y766860D01*
Y1041860D02*
Y904360D01*
Y1179360D02*
Y1190479D01*
X858850*
Y1144879*
X879650*
Y1157179*
X872650*
X397483Y1179360D02*
Y1041860D01*
X400650Y93660D02*
X411656D01*
X400650Y228660D02*
X411656D01*
X400650Y366160D02*
X411656D01*
X400650Y503660D02*
X411656D01*
X400650Y638660D02*
X411656D01*
X400650Y776160D02*
X411656D01*
X400650Y913660D02*
X411656D01*
X400650Y1051160D02*
X411656D01*
X400650Y1170660D02*
X411656D01*
Y79360D02*
Y93660D01*
X530150*
X411656Y216860D02*
Y228660D01*
X530150*
X411656Y354360D02*
Y366160D01*
X530150*
X411656Y491860D02*
Y503660D01*
X530150*
X411656Y629360D02*
Y638660D01*
X530150*
X411656Y766860D02*
Y776160D01*
X530150*
X411656Y904360D02*
Y913660D01*
X530150*
X411656Y1041860D02*
Y1051160D01*
X530150*
X411656Y1170660D02*
X530150D01*
X411656Y1179360D02*
Y1170660D01*
X473300Y285600D02*
X533383D01*
Y285160*
X473300Y423100D02*
X533383D01*
X473300Y560600D02*
X533383D01*
X473300Y698100D02*
X533383D01*
X473300Y835600D02*
X533383D01*
X473300Y973100D02*
X533383D01*
X473300Y1110600D02*
X533383D01*
Y1046160*
X530783*
Y1037560*
X533383*
Y973100*
Y148100D02*
Y83660D01*
X530783*
Y75060*
X533383*
Y70050*
X846350*
Y110479*
X877250*
Y101379*
X871050*
X533383Y148100D02*
X473300D01*
X533383Y285160D02*
Y221160D01*
X530783*
Y212560*
X533383*
Y148100*
Y423100D02*
Y358660D01*
X530783*
Y350060*
X533383*
Y285160*
Y560600D02*
Y496160D01*
X530783*
Y487560*
X533383*
Y423100*
Y698100D02*
Y633660D01*
X530783*
Y625060*
X533383*
Y560600*
Y835600D02*
Y771160D01*
X530783*
Y762560*
X533383*
Y698100*
Y973100D02*
Y908660D01*
X530783*
Y900060*
X533383*
Y835600*
X534983Y216860D02*
Y79360D01*
Y354360D02*
Y216860D01*
Y491860D02*
Y354360D01*
Y629360D02*
Y491860D01*
Y766860D02*
Y629360D01*
Y904360D02*
Y766860D01*
Y1041860D02*
Y904360D01*
Y1179360D02*
Y1188879D01*
X857250*
Y1143279*
X881250*
Y1162179*
X872650*
X534983Y1179360D02*
Y1041860D01*
X538150Y93660D02*
X549156D01*
X538150Y228660D02*
X549156D01*
X538150Y366160D02*
X549156D01*
X538150Y503660D02*
X549156D01*
X538150Y638660D02*
X549156D01*
X538150Y776160D02*
X549156D01*
X538150Y913660D02*
X549156D01*
X538150Y1051160D02*
X549156D01*
X538150Y1170660D02*
X549156D01*
Y79360D02*
Y93660D01*
X667650*
X549156Y216860D02*
Y228660D01*
X667650*
X549156Y354360D02*
Y366160D01*
X667650*
X549156Y491860D02*
Y503660D01*
X667650*
X549156Y629360D02*
Y638660D01*
X667650*
X549156Y766860D02*
Y776160D01*
X667650*
X549156Y904360D02*
Y913660D01*
X667650*
X549156Y1041860D02*
Y1051160D01*
X667650*
X549156Y1170660D02*
X667650D01*
X549156Y1179360D02*
Y1170660D01*
X610800Y285600D02*
X670883D01*
Y285160*
X610800Y423100D02*
X670883D01*
X610800Y560600D02*
X670883D01*
X610800Y698100D02*
X670883D01*
X610800Y835600D02*
X670883D01*
X610800Y973100D02*
X670883D01*
X610800Y1110600D02*
X670883D01*
Y1046160*
X668283*
Y1037560*
X670883*
Y973100*
Y148100D02*
Y83660D01*
X668283*
Y75060*
X670883*
Y71650*
X844750*
Y112879*
X879650*
Y91379*
X871050*
X670883Y148100D02*
X610800D01*
X670883Y285160D02*
Y221160D01*
X668283*
Y212560*
X670883*
Y148100*
Y423100D02*
Y358660D01*
X668283*
Y350060*
X670883*
Y285160*
Y560600D02*
Y496160D01*
X668283*
Y487560*
X670883*
Y423100*
Y698100D02*
Y633660D01*
X668283*
Y625060*
X670883*
Y560600*
Y835600D02*
Y771160D01*
X668283*
Y762560*
X670883*
Y698100*
Y973100D02*
Y908660D01*
X668283*
Y900060*
X670883*
Y835600*
X672483Y216860D02*
Y79360D01*
Y354360D02*
Y216860D01*
Y491860D02*
Y354360D01*
Y629360D02*
Y491860D01*
Y766860D02*
Y629360D01*
Y904360D02*
Y766860D01*
Y1041860D02*
Y904360D01*
Y1179360D02*
Y1187279D01*
X855650*
Y1141679*
X882850*
Y1167179*
X872650*
X672483Y1179360D02*
Y1041860D01*
X675650Y93660D02*
X686656D01*
X675650Y228660D02*
X686656D01*
X675650Y366160D02*
X686656D01*
X675650Y503660D02*
X686656D01*
X675650Y638660D02*
X686656D01*
X675650Y776160D02*
X687250D01*
X675650Y913660D02*
X686450D01*
X675650Y1051160D02*
X686656D01*
X675650Y1170660D02*
X686656D01*
X686450Y913660D02*
X805183D01*
X686450D02*
X686656D01*
Y904360*
Y79360D02*
Y93660D01*
X805183*
X686656Y216860D02*
Y228660D01*
X805183*
X686656Y354360D02*
Y366160D01*
X805183*
X686656Y491860D02*
Y503660D01*
X805183*
X686656Y629360D02*
Y638660D01*
X805183*
X686656Y1051160D02*
X805183D01*
X686656D02*
Y1041860D01*
Y1170660D02*
X805183D01*
X686656Y1179360D02*
Y1170660D01*
X687250Y776160D02*
X686656D01*
Y766860*
X748300Y285600D02*
X808383D01*
Y285160*
X748300Y423100D02*
X808383D01*
X748300Y560600D02*
X808383D01*
X748300Y698100D02*
X808383D01*
X748300Y835600D02*
X808383D01*
X748300Y973100D02*
X808383D01*
X748300Y1110600D02*
X808383D01*
Y1046160*
X805783*
Y1037560*
X808383*
Y973100*
X805183Y776160D02*
X687250D01*
X808383Y148100D02*
Y83660D01*
X805783*
Y75060*
X808383*
Y73431*
X843150*
Y114479*
X882050*
Y86479*
X871050*
Y86379*
X808383Y148100D02*
X748300D01*
X808383Y285160D02*
Y221160D01*
X805783*
Y212560*
X808383*
Y148100*
Y423100D02*
Y358660D01*
X805783*
Y350060*
X808383*
Y285160*
Y560600D02*
Y496160D01*
X805783*
Y487560*
X808383*
Y423100*
Y698100D02*
Y633660D01*
X805783*
Y625060*
X808383*
Y560600*
Y835600D02*
Y771160D01*
X805783*
Y762560*
X808383*
Y698100*
Y973100D02*
Y908660D01*
X805783*
Y900060*
X808383*
Y835600*
X809983Y216860D02*
Y79360D01*
Y354360D02*
Y216860D01*
Y491860D02*
Y354360D01*
Y629360D02*
Y491860D01*
Y766860D02*
Y629360D01*
Y904360D02*
Y766860D01*
Y1041860D02*
Y904360D01*
Y1179360D02*
Y1185679D01*
X854050*
Y1140079*
X884450*
Y1172179*
X872650*
X809983Y1179360D02*
Y1041860D01*
X813183Y93660D02*
X824156D01*
X813183Y228660D02*
X824156D01*
X813183Y366160D02*
X824156D01*
X813183Y503660D02*
X824156D01*
X813183Y638660D02*
X824156D01*
X813183Y913660D02*
X824156D01*
X813183Y1051160D02*
X824156D01*
X813183Y1170660D02*
X824156D01*
Y79360D02*
Y93660D01*
X833650*
Y119150*
X942650*
Y93660*
X824156Y216860D02*
Y228660D01*
X942650*
X824156Y354360D02*
Y366160D01*
X942650*
X824156Y491860D02*
Y503660D01*
X942650*
X824156Y629360D02*
Y638660D01*
X942650*
X824156Y766860D02*
Y776160D01*
X813183*
X824156Y904360D02*
Y913660D01*
X942650*
X824156Y1041860D02*
Y1051160D01*
X942650*
X824156Y1170660D02*
X842750D01*
Y1137850*
X942650*
Y1170660*
X824156Y1179360D02*
Y1170660D01*
X855150Y76350D02*
Y81350D01*
Y84879*
X864650*
Y93950*
X876050*
Y98950*
X849550*
Y66821*
X307650*
Y71050*
X298650*
X871050Y71379D02*
X855150D01*
Y76350*
X871050Y76379D02*
X863150D01*
Y76350*
X855150*
X871050Y81379D02*
X863150D01*
Y81350*
X855150*
X871050Y96379D02*
X851650D01*
Y65221*
X250350*
Y94450*
X256850*
Y124879*
X268225*
Y137350*
X885800Y285600D02*
X945883D01*
Y285160*
X885800Y423100D02*
X945883D01*
X885800Y560600D02*
X945883D01*
X885800Y698100D02*
X945883D01*
X885800Y835600D02*
X945883D01*
X885800Y973100D02*
X945883D01*
X885800Y1110600D02*
X945883D01*
Y1046160*
X943283*
Y1037560*
X945883*
Y973100*
X886850Y1174479D02*
Y1162179D01*
X893050*
X886850Y1174479D02*
Y1177179D01*
Y1182179*
Y1187279*
X893050*
Y1187179*
X891450Y71379D02*
Y63650D01*
X259850*
X248750*
Y96050*
X255150*
Y126479*
X265075*
Y137350*
X891450Y76379D02*
Y76079D01*
X897250*
Y62050*
X247150*
Y97650*
X253650*
Y128079*
X261926*
Y137350*
X891450Y81379D02*
Y80879D01*
X902050*
Y60450*
X245550*
Y99250*
X251950*
Y129679*
X258776*
Y137350*
X893050Y1177179D02*
X886850D01*
X893050Y1182179D02*
X886850D01*
X906850Y60879D02*
Y57250D01*
X253450*
X242350*
Y72050*
Y102450*
X248750*
Y136879*
X249450*
X256450Y143879*
Y146479*
X906850Y68879D02*
Y84079D01*
X886850*
Y106379*
X891450*
X942650Y776160D02*
X824156D01*
X945883Y148100D02*
X885800D01*
X945883D02*
Y83660D01*
X920450*
Y101679*
X891450*
Y101379*
X945883Y285160D02*
Y221160D01*
X943283*
Y212560*
X945883*
Y148100*
Y423100D02*
Y358660D01*
X943283*
Y350060*
X945883*
Y285160*
Y560600D02*
Y496160D01*
X943283*
Y487560*
X945883*
Y423100*
Y698100D02*
Y633660D01*
X943283*
Y625060*
X945883*
Y560600*
Y835600D02*
Y771160D01*
X943283*
Y762560*
X945883*
Y698100*
Y973100D02*
Y908660D01*
X943283*
Y900060*
X945883*
Y835600*
X947483Y216860D02*
Y79360D01*
Y354360D02*
Y216860D01*
Y491860D02*
Y354360D01*
Y629360D02*
Y491860D01*
Y766860D02*
Y629360D01*
Y904360D02*
Y766860D01*
Y1041860D02*
Y904360D01*
Y1179360D02*
X918850D01*
Y1151279*
X893050*
Y1152179*
X947483Y1179360D02*
Y1041860D01*
X950650Y93660D02*
X961656D01*
X950650Y228660D02*
X961656D01*
X950650Y366160D02*
X961656D01*
X950650Y503660D02*
X961656D01*
X950650Y638660D02*
X961656D01*
X950650Y913660D02*
X961656D01*
X950650Y1051160D02*
X961656D01*
X950650Y1170660D02*
X961656D01*
Y79360D02*
Y93660D01*
X1080150*
X961656Y216860D02*
Y228660D01*
X1080150*
X961656Y354360D02*
Y366160D01*
X1080150*
X961656Y491860D02*
Y503660D01*
X1080150*
X961656Y629360D02*
Y638660D01*
X1080150*
X961656Y766860D02*
Y776160D01*
X950650*
X961656Y904360D02*
Y913660D01*
X1080150*
X961656Y1041860D02*
Y1051160D01*
X1080150*
X961656Y1170660D02*
X1080150D01*
X961656Y1179360D02*
Y1170660D01*
X1023300Y285600D02*
X1083383D01*
Y285160*
X1023300Y423100D02*
X1083383D01*
X1023300Y560600D02*
X1083383D01*
X1023300Y698100D02*
X1083383D01*
X1023300Y835600D02*
X1083383D01*
X1023300Y973100D02*
X1083383D01*
X1023300Y1110600D02*
X1083383D01*
Y1046160*
X1080783*
Y1037560*
X1083383*
Y973100*
X1080150Y776160D02*
X961656D01*
X1083383Y148100D02*
X1023300D01*
X1083383D02*
Y83660D01*
X1080783*
Y75060*
X1083383*
Y70479*
X914850*
Y96079*
X891450*
Y96379*
X1083383Y285160D02*
Y221160D01*
X1080783*
Y212560*
X1083383*
Y148100*
Y423100D02*
Y358660D01*
X1080783*
Y350060*
X1083383*
Y285160*
Y560600D02*
Y496160D01*
X1080783*
Y487560*
X1083383*
Y423100*
Y698100D02*
Y633660D01*
X1080783*
Y625060*
X1083383*
Y560600*
Y835600D02*
Y771160D01*
X1080783*
Y762560*
X1083383*
Y698100*
Y973100D02*
Y908660D01*
X1080783*
Y900060*
X1083383*
Y835600*
X1084983Y216860D02*
Y79360D01*
Y354360D02*
Y216860D01*
Y491860D02*
Y354360D01*
Y629360D02*
Y491860D01*
Y766860D02*
Y629360D01*
Y904360D02*
Y766860D01*
Y1041860D02*
Y904360D01*
Y1179360D02*
Y1185679D01*
X917250*
Y1156879*
X893050*
Y1157179*
X1084983Y1179360D02*
Y1041860D01*
X1088150Y93660D02*
X1099156D01*
X1088150Y228660D02*
X1099156D01*
X1088150Y366160D02*
X1099156D01*
X1088150Y503660D02*
X1099156D01*
X1088150Y638660D02*
X1099156D01*
X1088150Y913660D02*
X1099156D01*
X1088150Y1051160D02*
X1099156D01*
X1088150Y1170660D02*
X1099156D01*
Y79360D02*
Y93660D01*
X1217650*
X1099156Y216860D02*
Y228660D01*
X1217650*
X1099156Y354360D02*
Y366160D01*
X1217650*
X1099156Y491860D02*
Y503660D01*
X1217650*
X1099156Y629360D02*
Y638660D01*
X1217650*
X1099156Y766860D02*
Y776160D01*
X1088150*
X1099156Y904360D02*
Y913660D01*
X1217650*
X1099156Y1041860D02*
Y1051160D01*
X1217650*
X1099156Y1170660D02*
X1217650D01*
X1099156Y1179360D02*
Y1170660D01*
X1160800Y285600D02*
X1220883D01*
Y285160*
X1160800Y423100D02*
X1220883D01*
X1160800Y560600D02*
X1220883D01*
X1160800Y698100D02*
X1220883D01*
X1160800Y835600D02*
X1220883D01*
X1160800Y973100D02*
X1220883D01*
X1160800Y1110600D02*
X1220883D01*
Y1046160*
X1218283*
Y1037560*
X1220883*
Y973100*
X1217650Y776160D02*
X1099156D01*
X1220883Y148100D02*
X1160800D01*
X1220883D02*
Y83660D01*
X1218283*
Y75060*
X1220883*
Y68698*
X913250*
Y91450*
X891450*
Y91379*
X1220883Y285160D02*
Y221160D01*
X1218283*
Y212560*
X1220883*
Y148100*
Y423100D02*
Y358660D01*
X1218283*
Y350060*
X1220883*
Y285160*
Y560600D02*
Y496160D01*
X1218283*
Y487560*
X1220883*
Y423100*
Y698100D02*
Y633660D01*
X1218283*
Y625060*
X1220883*
Y560600*
Y835600D02*
Y771160D01*
X1218283*
Y762560*
X1220883*
Y698100*
Y973100D02*
Y908660D01*
X1218283*
Y900060*
X1220883*
Y835600*
X1222483Y216860D02*
Y79360D01*
Y354360D02*
Y216860D01*
Y491860D02*
Y354360D01*
Y629360D02*
Y491860D01*
Y766860D02*
Y629360D01*
Y904360D02*
Y766860D01*
Y1041860D02*
Y904360D01*
Y1179360D02*
Y1187279D01*
X915650*
Y1167179*
X893050*
X1222483Y1179360D02*
Y1041860D01*
X1225650Y93660D02*
X1236656D01*
X1225650Y228660D02*
X1236656D01*
X1225650Y366160D02*
X1236656D01*
X1225650Y503660D02*
X1236656D01*
X1225650Y638660D02*
X1236656D01*
X1225650Y913660D02*
X1236656D01*
X1225650Y1051160D02*
X1236656D01*
X1225650Y1170660D02*
X1236656D01*
Y79360D02*
Y93660D01*
X1355150*
X1236656Y216860D02*
Y228660D01*
X1355150*
X1236656Y354360D02*
Y366160D01*
X1355150*
X1236656Y491860D02*
Y503660D01*
X1355150*
X1236656Y629360D02*
Y638660D01*
X1355150*
X1236656Y766860D02*
Y776160D01*
X1225650*
X1236656Y904360D02*
Y913660D01*
X1355150*
X1236656Y1041860D02*
Y1051160D01*
X1355150*
X1236656Y1170660D02*
X1355150D01*
X1236656Y1179360D02*
Y1170660D01*
X1298300Y285600D02*
X1358383D01*
Y285160*
X1298300Y423100D02*
X1358383D01*
X1298300Y560600D02*
X1358383D01*
X1298300Y698100D02*
X1358383D01*
X1298300Y835600D02*
X1358383D01*
X1298300Y973100D02*
X1358383D01*
X1298300Y1110600D02*
X1358383D01*
Y1046160*
X1355783*
Y1037560*
X1358383*
Y973100*
X1355150Y776160D02*
X1236656D01*
X1358383Y148100D02*
X1298300D01*
X1358383D02*
Y83660D01*
X1355783*
Y75060*
X1358383*
Y67098*
X911650*
Y86479*
X891450*
Y86379*
X1358383Y285160D02*
Y221160D01*
X1355783*
Y212560*
X1358383*
Y148100*
Y423100D02*
Y358660D01*
X1355783*
Y350060*
X1358383*
Y285160*
Y560600D02*
Y496160D01*
X1355783*
Y487560*
X1358383*
Y423100*
Y698100D02*
Y633660D01*
X1355783*
Y625060*
X1358383*
Y560600*
Y835600D02*
Y771160D01*
X1355783*
Y762560*
X1358383*
Y698100*
Y973100D02*
Y908660D01*
X1355783*
Y900060*
X1358383*
Y835600*
X1359983Y216860D02*
Y79360D01*
Y354360D02*
Y216860D01*
Y491860D02*
Y354360D01*
Y629360D02*
Y491860D01*
Y766860D02*
Y629360D01*
Y904360D02*
Y766860D01*
Y1041860D02*
Y904360D01*
Y1179360D02*
Y1188879D01*
X914050*
Y1172079*
X893050*
Y1172179*
X1359983Y1179360D02*
Y1041860D01*
X1363150Y93660D02*
X1374156D01*
Y79360*
X1363150Y228660D02*
X1374156D01*
Y216860*
X1363150Y366160D02*
X1374156D01*
Y354360*
X1363150Y503660D02*
X1374156D01*
Y491860*
X1363150Y638660D02*
X1374156D01*
Y629360*
X1363150Y776160D02*
X1374156D01*
Y766860*
X1363150Y913660D02*
X1374156D01*
Y904360*
X1363150Y1051160D02*
X1374156D01*
Y1041860*
X1363150Y1170660D02*
X1374156D01*
Y1179360*
X1371850Y683379D02*
X1371650D01*
Y663279*
X1394350*
Y59279*
X906850*
Y60879*
X1371850Y708379D02*
X1378050D01*
Y664879*
X1395950*
Y55650*
X251850*
X240750*
Y104050*
X247250*
Y140785*
X249721Y143256*
X1371850Y713379D02*
X1379650D01*
Y666479*
X1397550*
Y54050*
X239150*
Y105650*
X245550*
Y146405*
X249721*
X1371850Y718379D02*
X1381250D01*
Y668079*
X1399150*
Y52450*
X248650*
X237550*
Y70450*
Y107250*
X243950*
Y125050*
X237650*
Y134650*
Y167250*
X236050*
X1374156Y79360D02*
Y64079D01*
X903650*
Y58850*
X255050*
X243950*
Y100850*
X250450*
Y131279*
X1374156Y216860D02*
X1383650D01*
Y648079*
X1366450*
Y688379*
X1371850*
X1374156Y354360D02*
X1382050D01*
Y646479*
X1364850*
Y693379*
X1371850*
X1374156Y491860D02*
X1380450D01*
Y644079*
X1363250*
Y698379*
X1371850*
X1374156Y629360D02*
X1378850D01*
Y641679*
X1361650*
Y703379*
X1371850*
X1374156Y766860D02*
X1382850D01*
Y683379*
X1392250*
X1374156Y904360D02*
X1384450D01*
Y688379*
X1392250*
X1374156Y1041860D02*
X1386050D01*
Y698479*
X1392250*
Y698379*
X1374156Y1179360D02*
X1387650D01*
Y703279*
X1392250*
Y703379*
X1400750Y707279D02*
Y713679D01*
Y707279D02*
Y708079D01*
X1392250*
Y708379*
X1400750Y707279D02*
Y678450D01*
X1402250*
Y46050*
X231050*
Y136750*
X234350*
X1400750Y713679D02*
Y718479D01*
X1392250*
Y718379*
X1400750Y713679D02*
X1392250D01*
Y713379*
X0Y0D02*
M02*
